<svg version="1.1" viewBox="0.0 0.0 299.5511811023622 288.0" fill="none" stroke="none" stroke-linecap="square" stroke-miterlimit="10" xmlns:xlink="http://www.w3.org/1999/xlink" xmlns="http://www.w3.org/2000/svg"><clipPath id="p.0"><path d="m0 0l299.55118 0l0 288.0l-299.55118 0l0 -288.0z" clip-rule="nonzero"/></clipPath><g clip-path="url(#p.0)"><path fill="#000000" fill-opacity="0.0" d="m0 0l299.55118 0l0 288.0l-299.55118 0z" fill-rule="evenodd"/><path fill="#5f4d93" d="m20.299206 190.16351l0 0c-11.210945 -28.936234 36.387882 -74.31412 106.31496 -101.354324l0 0c69.92708 -27.04021 135.70245 -25.503174 146.91339 3.4330673l0 0c11.2109375 28.936241 -36.387894 74.314125 -106.31497 101.35433l0 0c-69.92707 27.040207 -135.70244 25.503174 -146.91338 -3.433075z" fill-rule="evenodd"/><path fill="#5f4d93" d="m77.41731 82.048035l0 0c-3.6181107 -9.341011 11.491394 -23.886467 33.74803 -32.488194l0 0c22.256638 -8.601723 43.232285 -8.002422 46.850403 1.3385849l0 0c3.6181183 9.341003 -11.491394 23.886463 -33.74804 32.488186l0 0c-22.256638 8.60173 -43.232277 8.002426 -46.850395 -1.3385773z" fill-rule="evenodd"/><path fill="#5f4d93" d="m77.747894 82.80984l80.566925 -31.244099l31.244095 80.56694l-80.566925 31.244095z" fill-rule="evenodd"/><path fill="#935d8c" d="m88.36275 111.01572l-16.768494 11.003822l-15.650425 11.480797l-15.332821 13.713516l-9.902554 13.076721l-4.789892 11.480789l-1.5983524 11.800491l6.3882446 13.076706l10.540344 7.0178986l21.083275 3.5063782l30.983242 -0.63682556l39.92524 -7.654724l44.079926 -15.309433l35.77571 -18.496124l26.831146 -19.135513l19.80252 -20.731422l6.708435 -15.309441l0.31759644 -15.626564l-6.3882446 -7.654724l-10.540329 -5.739105l-13.734467 -4.4654694l-15.332825 -1.5959167l-22.996643 0.63939667l-15.650436 2.549858l-13.416855 2.2327347l11.818512 30.616302l8.304199 0.9590988l4.792465 9.2480545l-6.70842 11.480789l-22.358856 17.222488l-26.510956 9.248047l-25.235382 3.828659l-14.372253 -4.4654694l-2.8739395 -10.204575l4.4697037 -7.654724l-6.7858963 -17.861877z" fill-rule="evenodd"/><path fill="#935d8c" d="m81.9055 80.31575l0 0c-3.2354279 -8.349503 10.174873 -21.31562 29.952759 -28.960632l0 0c19.777878 -7.645012 38.433853 -7.0739098 41.669296 1.2755928l0 0c3.2354279 8.349499 -10.174881 21.315617 -29.952759 28.960629l0 0c-19.777885 7.645012 -38.43386 7.0739136 -41.669296 -1.275589z" fill-rule="evenodd"/></g></svg>