<svg version="1.1" viewBox="0.0 0.0 1440.0 288.0" fill="none" stroke="none" stroke-linecap="square" stroke-miterlimit="10" xmlns:xlink="http://www.w3.org/1999/xlink" xmlns="http://www.w3.org/2000/svg"><clipPath id="p.0"><path d="m0 0l1440.0 0l0 288.0l-1440.0 0l0 -288.0z" clip-rule="nonzero"/></clipPath><g clip-path="url(#p.0)"><path fill="#000000" fill-opacity="0.0" d="m0 0l1440.0 0l0 288.0l-1440.0 0z" fill-rule="evenodd"/><path fill="#5f4d93" d="m305.17584 204.42467l0 0c-11.2109375 -28.936234 36.38788 -74.31412 106.31497 -101.354324l0 0c69.92706 -27.040207 135.70242 -25.503174 146.91336 3.4330673l0 0c11.2109375 28.936241 -36.38788 74.314125 -106.31494 101.35433l0 0c-69.92706 27.040207 -135.70245 25.503174 -146.91339 -3.433075z" fill-rule="evenodd"/><path fill="#5f4d93" d="m362.29395 96.30919l0 0c-3.618103 -9.341003 11.491394 -23.886467 33.748047 -32.48819l0 0c22.256622 -8.601727 43.23227 -8.002422 46.850403 1.3385849l0 0c3.618103 9.341003 -11.491394 23.88646 -33.748047 32.488182l0 0c-22.256653 8.60173 -43.23227 8.002426 -46.850403 -1.3385773z" fill-rule="evenodd"/><path fill="#5f4d93" d="m362.62454 97.07099l80.566925 -31.244095l31.24408 80.56693l-80.566925 31.244095z" fill-rule="evenodd"/><path fill="#935d8c" d="m373.23938 125.27687l-16.768494 11.00383l-15.650421 11.480789l-15.332825 13.713516l-9.902557 13.076721l-4.7898865 11.480789l-1.5983582 11.800491l6.3882446 13.076706l10.540344 7.0178986l21.083282 3.5063782l30.983246 -0.63682556l39.925232 -7.654724l44.079926 -15.309433l35.775726 -18.496124l26.831116 -19.135513l19.802551 -20.73143l6.708435 -15.309433l0.31762695 -15.626564l-6.3882446 -7.654724l-10.540344 -5.739105l-13.734497 -4.4654694l-15.332825 -1.5959167l-22.996643 0.63939667l-15.650421 2.549858l-13.41687 2.2327347l11.818512 30.616302l8.304199 0.9590988l4.7924805 9.2480545l-6.708435 11.480789l-22.358856 17.222488l-26.510956 9.248047l-25.235382 3.828659l-14.372253 -4.4654694l-2.873932 -10.204575l4.469696 -7.654724l-6.7858887 -17.861877z" fill-rule="evenodd"/><path fill="#935d8c" d="m366.78214 94.576904l0 0c-3.2354126 -8.349503 10.174896 -21.31562 29.952759 -28.960632l0 0c19.777893 -7.645012 38.43387 -7.0739098 41.66931 1.275589l0 0c3.2354126 8.349503 -10.174896 21.31562 -29.952759 28.960632l0 0c-19.777893 7.645012 -38.43387 7.0739136 -41.66931 -1.275589z" fill-rule="evenodd"/></g></svg>