<svg version="1.1" viewBox="0.0 0.0 286.45931758530185 288.0" fill="none" stroke="none" stroke-linecap="square" stroke-miterlimit="10" xmlns:xlink="http://www.w3.org/1999/xlink" xmlns="http://www.w3.org/2000/svg"><clipPath id="p.0"><path d="m0 0l286.45932 0l0 288.0l-286.45932 0l0 -288.0z" clip-rule="nonzero"/></clipPath><g clip-path="url(#p.0)"><path fill="#000000" fill-opacity="0.0" d="m0 0l286.45932 0l0 288.0l-286.45932 0z" fill-rule="evenodd"/><path fill="#5f4d93" d="m86.41732 66.36089l-3.2467194 -3.2467194l-5.1942215 -4.787403l-5.7637787 -5.115486l-3.9763794 -3.4094467l-3.083992 -2.1102371l-3.328083 -1.6220474l-3.979 -1.2992134l-3.1653557 -0.8923874l-4.057743 0.08136368l-3.4094505 0.4855652l-4.9501305 2.1916008l-6.0078735 3.005249l-3.650917 3.6509209l-1.5433083 2.6797905l-0.8923893 4.1391068l0.8110237 3.895012l2.5170612 3.734909l8.847771 8.2782135l11.362202 9.902885l8.440945 -5.6010437l2.1916046 2.0314941l-3.0026283 2.7585297l-3.1653519 5.3569565l-2.354332 5.4383163l-0.8923874 3.2467194l-0.24409485 4.5459366l0.32545853 3.6535416l-10.87664 5.598427l41.80052 63.149597l-5.031494 3.734909l1.7847748 3.1653595l5.7637863 -3.2467194l42.20735 64.36745l27.761154 -17.047241l-42.69554 -63.149597l2.5984268 -1.7034149l-2.1916046 -3.4908142l-3.083992 1.7060394l-13.4750595 -20.13124l18.832016 10.228348l7.1417313 6.249344l0.72966003 5.519684l32.874023 20.454071l32.14435 18.750656l7.141739 3.8136444l5.6824036 0.24409485l3.2467194 -0.56692505l3.0839996 -1.5433044l6.9002533 -5.031494l4.3018494 -4.790024l6.3307037 -8.522324l2.5957947 -1.5433044l18.913391 -12.905502l-39.853012 -60.30709l2.3516998 -1.7873993l-2.27034 -3.1653595l-2.2729645 1.9501343l-40.66667 -62.175854l-24.837265 13.068241l40.503937 62.498688l-1.4619446 0.4881897l-9.496063 -5.438324l-8.280838 -0.08135986l-2.6771698 1.2178421l-11.931763 -7.629921l-12.986877 -7.629921l-4.8713837 0.08136749l-7.0603714 -3.8976364l-0.7322769 -1.8661423l-22.808403 -13.149605l-2.191597 0.08135986l-1.9475098 -0.97374725l-2.354332 -3.1653595l-3.083992 -2.191597l-4.3832016 -0.5695572l-1.5406799 -1.6220474l-0.08136749 -1.5433044l-4.3832016 -3.3280869z" fill-rule="evenodd"/><path fill="#935d8c" d="m97.073524 140.45255l54.108635 81.12636l-22.26033 13.136734l-78.536 -119.45222l21.56797 -11.590195z" fill-rule="evenodd"/><path fill="#935d8c" d="m147.94226 59.34696l18.489838 -10.193417l77.506195 117.828606l-19.357468 13.592056l3.6206207 -11.616745l0.9439697 -7.666153l-0.5521393 -7.3492737l-1.4935303 -4.346695l-3.226242 -3.7921906l-5.193039 -3.1610107l-4.7223206 -2.846695l-25.257828 -15.408936z" fill-rule="evenodd"/><path fill="#5f4d93" d="m169.49344 66.937004l0.50131226 -2.0l0.24934387 -2.1233559l0.18635559 -2.5643044l-0.3753357 -2.1863518l-0.8740082 -0.56167984l-1.5616913 0.7480316l-1.6246643 1.5643044l-2.438324 2.8110237l-1.1259766 2.937004l-1.8110352 3.0l-0.8136444 2.5643082l-0.06298828 1.3123398l0.1889801 0.9370041l1.6246643 -0.37532806l3.1259918 -1.3753281l2.4356842 -1.561676l1.6876678 0.561676l-1.3123322 4.062996l-4.561676 14.438316l-7.3753357 23.748032l-4.3753204 10.939636l1.8136444 0.6876602l5.249344 -15.18898l6.249344 -20.312332l5.312332 -16.624672l0.43832397 -1.8740158l1.4986877 -1.3753281l1.5013123 -1.1259842l-1.876648 -1.0l0.43832397 -0.8740158z" fill-rule="evenodd"/></g></svg>