<svg version="1.1" viewBox="0.0 0.0 1440.0 288.0" fill="none" stroke="none" stroke-linecap="square" stroke-miterlimit="10" xmlns:xlink="http://www.w3.org/1999/xlink" xmlns="http://www.w3.org/2000/svg"><clipPath id="p.0"><path d="m0 0l1440.0 0l0 288.0l-1440.0 0l0 -288.0z" clip-rule="nonzero"/></clipPath><g clip-path="url(#p.0)"><path fill="#000000" fill-opacity="0.0" d="m0 0l1440.0 0l0 288.0l-1440.0 0z" fill-rule="evenodd"/><path fill="#5f4d93" d="m660.87665 60.632545l-3.246704 -3.2467194l-5.194275 -4.7873993l-5.763733 -5.115486l-3.9763794 -3.4094505l-3.0839844 -2.1102371l-3.328125 -1.6220474l-3.979004 -1.2992096l-3.1653442 -0.8923912l-4.0577393 0.08136749l-3.4094238 0.48556137l-4.9501343 2.1916046l-6.0078735 3.005249l-3.65094 3.650917l-1.5432739 2.6797905l-0.892395 4.1391068l0.8109741 3.895012l2.5170898 3.734909l8.847778 8.2782135l11.362183 9.902893l8.440979 -5.6010513l2.1915894 2.0314941l-3.0026245 2.7585297l-3.1653442 5.3569565l-2.35437 5.4383163l-0.892395 3.2467194l-0.24407959 4.5459366l0.32543945 3.6535416l-10.876587 5.598427l41.800476 63.149597l-5.031494 3.734909l1.78479 3.1653595l5.763794 -3.2467194l42.207336 64.36746l27.76117 -17.047256l-42.695557 -63.149597l2.5984497 -1.7034149l-2.1915894 -3.4908142l-3.0839844 1.7060394l-13.475098 -20.13124l18.832031 10.228348l7.1417236 6.249344l0.7296753 5.519684l32.874023 20.454071l32.14435 18.750656l7.1417236 3.8136444l5.682434 0.24409485l3.246704 -0.56692505l3.0839844 -1.5433044l6.9002686 -5.031494l4.301819 -4.790024l6.3306885 -8.522308l2.5958252 -1.5433197l18.913391 -12.905502l-39.853027 -60.30709l2.3516846 -1.7873993l-2.2703247 -3.1653595l-2.2729492 1.9501343l-40.666687 -62.175854l-24.83728 13.068241l40.503967 62.498688l-1.4619751 0.4881897l-9.496033 -5.4383163l-8.280823 -0.08136749l-2.677185 1.2178497l-11.931763 -7.629921l-12.986877 -7.629921l-4.871399 0.08135986l-7.060364 -3.8976364l-0.7322998 -1.8661423l-22.80835 -13.149605l-2.1916504 0.08136749l-1.9475098 -0.9737549l-2.354309 -3.1653595l-3.0839844 -2.191597l-4.3831787 -0.5695572l-1.5407104 -1.6220474l-0.08135986 -1.5433044l-4.3831787 -3.328083z" fill-rule="evenodd"/><path fill="#935d8c" d="m671.53284 134.7242l54.108643 81.12637l-22.260315 13.136719l-78.53601 -119.45221l21.567932 -11.590195z" fill-rule="evenodd"/><path fill="#935d8c" d="m722.40155 53.61861l18.489868 -10.193413l77.506226 117.8286l-19.357483 13.592072l3.6206055 -11.61676l0.9439697 -7.666153l-0.552124 -7.3492737l-1.4935303 -4.346695l-3.2262573 -3.7921906l-5.193054 -3.1610107l-4.72229 -2.8466797l-25.257874 -15.408951z" fill-rule="evenodd"/><path fill="#5f4d93" d="m743.95276 61.20866l0.50128174 -2.0l0.24938965 -2.1233597l0.18634033 -2.5643044l-0.37530518 -2.1863518l-0.87402344 -0.56167984l-1.5617065 0.7480316l-1.6246948 1.5643044l-2.4382935 2.8110237l-1.1259766 2.937008l-1.8110352 3.0l-0.81365967 2.5643044l-0.06298828 1.3123398l0.18896484 0.9370041l1.6246948 -0.37532806l3.1259766 -1.3753281l2.43573 -1.561676l1.6876221 0.561676l-1.3123169 4.062996l-4.5617065 14.438316l-7.375305 23.748032l-4.375305 10.939636l1.8135986 0.6876602l5.2493896 -15.188972l6.2493286 -20.31234l5.312317 -16.624672l0.4383545 -1.8740158l1.4986572 -1.3753281l1.5013428 -1.1259842l-1.876648 -1.0l0.43829346 -0.8740158z" fill-rule="evenodd"/></g></svg>