<svg version="1.1" viewBox="0.0 0.0 313.41207349081367 287.2309711286089" fill="none" stroke="none" stroke-linecap="square" stroke-miterlimit="10" xmlns:xlink="http://www.w3.org/1999/xlink" xmlns="http://www.w3.org/2000/svg"><clipPath id="p.0"><path d="m0 0l313.41208 0l0 287.23096l-313.41208 0l0 -287.23096z" clip-rule="nonzero"/></clipPath><g clip-path="url(#p.0)"><path fill="#000000" fill-opacity="0.0" d="m0 0l313.41208 0l0 287.23096l-313.41208 0z" fill-rule="evenodd"/><path fill="#5f4d93" d="m43.951923 186.54948l0.30532837 -20.8629l-0.40805435 -0.1695404l-0.034244537 -1.255127l0.16978455 -0.6111908l-0.06705475 -1.3235168l-2.4469147 -0.746521l-2.0388565 -0.6439514l-1.9703712 -0.84768677l-1.8676453 -1.0856018l-2.4469147 -1.6625824l0.16978836 -0.64538574l4.8253403 -0.27069092l5.5030594 -0.746521l0.8161125 0.78071594l0.84893036 -3.4947205l1.4267693 -3.1884155l2.2428856 -3.563095l2.3099442 -2.883545l4.0434723 -4.3082123l2.7179985 -1.8990784l2.8535423 -1.2565613l2.5824585 -0.5755768l1.9703674 -0.10256958l2.2086487 0.20373535l0.54359436 0.10256958l2.105919 -1.0186462l2.0388565 -0.60975647l2.3784256 -0.13676453l2.8535461 0.30630493l3.5326843 0.98301697l5.979599 3.5289154l3.3300858 2.3749237l3.3628998 3.1884155l2.9220276 4.0375214l2.1744003 4.7826233l1.0201416 3.630066l0.33957672 3.7312164l0.10129547 2.104248l-0.2368393 0.3048706l0 1.9005127l-0.1027298 26.427673z" fill-rule="evenodd"/><path fill="#5f4d93" d="m122.294846 141.32402l0.4595108 -14.516289l0.805542 -2.0568542l-0.34416962 -22.974731l-1.2669067 -4.1155624l0.574852 -9.600525l1.7264175 -8.229286l3.4528427 -6.2870026l4.717888 -5.2576523l4.831375 -3.3153687l5.292755 -2.8570557l7.7093506 -2.056858l7.595886 -0.11457825l8.628387 1.7149734l6.903824 3.542675l5.869461 4.6866074l6.098282 9.029488l2.1859283 6.057846l1.2650452 6.401581l-0.2288208 7.8855515l-0.9208832 6.2870026l0.34417725 21.147018l1.1515656 14.057976z" fill-rule="evenodd"/><path fill="#5f4d93" d="m26.850393 212.4672l260.37793 0l0 15.590546l-260.37793 0z" fill-rule="evenodd"/><path fill="#5f4d93" d="m285.29135 214.48557l-6.656189 -17.125992l-9.900269 1.4619446l-18.669281 -3.0839844l-9.902878 1.7034149l-29.057755 -34.414703l-8.280838 -3.8976288l-1.7847748 -13.228348l-3.816269 -0.9763794l-2.5957947 -11.199478l-9.417328 -0.892395l-6.5747986 3.6509247l-16.152237 -1.7034149l-6.3307037 2.1102448l-13.797913 -0.6509247l-4.8713837 1.2992096l-4.301834 -2.1916046l-3.2467194 0.4881897l-4.383209 3.0839996l-4.6272964 0.89237976l-2.4330673 3.979004l1.7847748 3.8950195l-3.895012 5.519684l-0.9737549 9.821518l-2.0314941 -0.6509094l-2.3517075 15.8293915l-1.6246719 -1.4619446l-2.5170593 1.3805695l-5.761154 8.036758l-6.818901 2.9212494l-14.93438 -0.89237976l-2.6797867 -2.1102448l-10.06562 0.72966003l-3.406826 0.9737549l-19.887138 -2.7585297l-3.2467194 2.7585297l-1.8661423 5.519684l-1.7060356 0l-3.8136482 7.7112885l-1.2178478 -0.8110199l-4.6272964 12.335953z" fill-rule="evenodd"/><path fill="#935d8c" d="m65.89221 138.8518l-5.3697243 0.70758057l-4.319538 1.9485321l-3.6194153 2.8326874l-3.0349236 4.160141l-2.2175865 3.806961l-1.0501862 3.8958588l0.11721802 0.8853607l3.6178322 1.1508636l2.9177094 0.8853607l2.2191658 0l0.35006332 -5.4010925l1.5174637 -4.6911316l1.8675232 -3.3648682l2.6848602 -3.2759857z" fill-rule="evenodd"/><path fill="#5f4d93" d="m267.14435 151.65092l-0.30706787 -20.8609l0.40942383 -0.17060852l0.03414917 -1.2545929l-0.17062378 -0.61154175l0.068237305 -1.3228378l1.2309875 -0.6062927l2.4356995 -0.892395l1.7847595 -0.97374725l1.78479 -0.8923874l1.787384 -1.7060394l-0.4881897 -0.8110275l-4.301819 -0.16272736l-3.9606323 -0.60630035l-1.1522217 0.20210266l-0.5144348 -2.916008l-1.4252014 -3.1863556l-2.24411 -3.5643005l-2.3096924 -2.8845215l-4.0420074 -4.307083l-2.719162 -1.9002609l-2.853012 -1.2545929l-2.5826874 -0.5774307l-1.9711151 -0.10236359l-2.2073517 0.20472717l-0.54330444 0.10236359l-2.1076202 -1.0183716l-2.0393677 -0.60892487l-2.3779602 -0.13648224l-2.853012 0.30445862l-3.5328064 0.9842529l-5.979004 3.5275574l-3.3307037 2.375328l-3.3622131 3.18898l-2.923874 4.036743l-2.173233 4.7821503l-1.0209961 3.629921l-0.33859253 3.7322845l-0.10235596 2.104988l0.23884583 0.30445862l0 1.9002686l0.10235596 26.427826z" fill-rule="evenodd"/><path fill="#935d8c" d="m245.20473 103.062996l5.367447 0.7060318l4.320221 1.9501343l3.6194153 2.832016l3.0341187 4.1601105l2.217865 3.8057709l1.0524902 3.8976364l-0.118133545 0.88451385l-3.6194153 1.1496124l-2.9160156 0.88713837l-2.7401428 0.4855652l-0.892395 -4.5459366l-1.6246643 -4.7086563l-1.4619446 -3.1653595l-2.5144348 -3.9763794z" fill-rule="evenodd"/><path fill="#5f4d93" d="m210.74803 127.480316l56.598434 0l0 76.7874l-56.598434 0z" fill-rule="evenodd"/><path fill="#935d8c" d="m146.99 62.84048l-0.7725067 0.4808464l-0.7010498 0.927269l-0.59669495 1.4081116l-0.6658783 2.3353806l-0.42085266 2.4042282l-0.38682556 2.0943985l19.084854 0.068855286l0.24502563 -7.5558395l0.2813263 -2.4042282l-16.59375 -0.23986435l0 0.54969406z" fill-rule="evenodd"/></g></svg>