<svg version="1.1" viewBox="0.0 0.0 1440.0 288.0" fill="none" stroke="none" stroke-linecap="square" stroke-miterlimit="10" xmlns:xlink="http://www.w3.org/1999/xlink" xmlns="http://www.w3.org/2000/svg"><clipPath id="p.0"><path d="m0 0l1440.0 0l0 288.0l-1440.0 0l0 -288.0z" clip-rule="nonzero"/></clipPath><g clip-path="url(#p.0)"><path fill="#000000" fill-opacity="0.0" d="m0 0l1440.0 0l0 288.0l-1440.0 0z" fill-rule="evenodd"/><path fill="#5f4d93" d="m896.4034 203.06917l0.30529785 -20.8629l-0.40802002 -0.16952515l-0.034240723 -1.2551422l0.16973877 -0.6111908l-0.0670166 -1.3235168l-2.4468994 -0.746521l-2.0388794 -0.6439514l-1.970398 -0.84768677l-1.8676147 -1.0856018l-2.4468994 -1.6625824l0.16973877 -0.64538574l4.8253784 -0.27069092l5.5030518 -0.746521l0.8161011 0.78071594l0.848938 -3.4947205l1.4267578 -3.1884155l2.24292 -3.563095l2.3099365 -2.883545l4.043457 -4.308197l2.7180176 -1.8990936l2.8535156 -1.2565613l2.5824585 -0.5755615l1.970398 -0.10258484l2.2086182 0.20373535l0.5435791 0.10256958l2.105957 -1.0186462l2.0388184 -0.60975647l2.378418 -0.13676453l2.8535767 0.30630493l3.5326538 0.98301697l5.9796143 3.5289154l3.3300781 2.3749237l3.362915 3.1884155l2.922058 4.0375214l2.1743774 4.7826233l1.0201416 3.630066l0.3395996 3.7312164l0.101257324 2.104248l-0.2368164 0.3048706l0 1.9005127l-0.10272217 26.427673z" fill-rule="evenodd"/><path fill="#5f4d93" d="m974.7463 157.8437l0.4595337 -14.516281l0.805542 -2.0568695l-0.34417725 -22.974724l-1.2669067 -4.1155624l0.5748291 -9.600525l1.7264404 -8.229286l3.4528198 -6.2870026l4.7178955 -5.2576523l4.831421 -3.3153687l5.2927246 -2.8570557l7.7093506 -2.0568542l7.595886 -0.11457825l8.628357 1.7149734l6.9038696 3.5426712l5.869385 4.6866074l6.0983887 9.029488l2.185913 6.057846l1.2650146 6.401581l-0.22888184 7.8855515l-0.92077637 6.2870026l0.3441162 21.147026l1.1516113 14.057968z" fill-rule="evenodd"/><path fill="#5f4d93" d="m879.3018 228.98688l260.378 0l0 15.590546l-260.378 0z" fill-rule="evenodd"/><path fill="#5f4d93" d="m1137.7428 231.00525l-6.656128 -17.125977l-9.900269 1.4619293l-18.669312 -3.0839844l-9.902954 1.7034149l-29.05774 -34.414703l-8.280762 -3.8976288l-1.78479 -13.228348l-3.8162842 -0.9763794l-2.5958252 -11.199478l-9.417358 -0.892395l-6.574707 3.6509247l-16.152283 -1.7034149l-6.3306885 2.1102448l-13.797913 -0.6509247l-4.871399 1.2992096l-4.301819 -2.1916046l-3.2467651 0.4881897l-4.3831787 3.0839996l-4.6273193 0.89237976l-2.4330444 3.979004l1.78479 3.8950195l-3.8950195 5.519684l-0.9737549 9.821518l-2.0314941 -0.6509094l-2.3517456 15.8293915l-1.6246338 -1.4619446l-2.5170898 1.3805847l-5.7611084 8.036743l-6.8189087 2.9212494l-14.934387 -0.89237976l-2.6798096 -2.1102448l-10.065613 0.72966003l-3.4067993 0.9737549l-19.887146 -2.7585297l-3.246704 2.7585297l-1.8661499 5.519684l-1.7060547 0l-3.8136597 7.7112885l-1.2178345 -0.8110199l-4.6273193 12.335953z" fill-rule="evenodd"/><path fill="#935d8c" d="m918.3436 155.37149l-5.36969 0.70758057l-4.319519 1.9485321l-3.6194458 2.8326874l-3.034912 4.160141l-2.2175903 3.806961l-1.0501709 3.8958588l0.1171875 0.8853607l3.617859 1.1508636l2.9176636 0.8853607l2.2191772 0l0.35009766 -5.4010925l1.517456 -4.6911316l1.8674927 -3.3648682l2.6848755 -3.2759857z" fill-rule="evenodd"/><path fill="#5f4d93" d="m1119.5958 168.17061l-0.3071289 -20.8609l0.40942383 -0.17059326l0.034179688 -1.2545929l-0.1706543 -0.611557l0.068237305 -1.3228302l1.230957 -0.606308l2.435791 -0.89237976l1.78479 -0.9737549l1.784668 -0.892395l1.7874756 -1.7060242l-0.48815918 -0.81103516l-4.30188 -0.16271973l-3.9606934 -0.606308l-1.1522217 0.20210266l-0.5144043 -2.9160156l-1.4251709 -3.1863403l-2.2441406 -3.5643082l-2.3096924 -2.8845139l-4.041992 -4.3070908l-2.7191162 -1.9002609l-2.8530273 -1.2545929l-2.5826416 -0.5774307l-1.9711914 -0.10236359l-2.2073975 0.20472717l-0.5432129 0.10236359l-2.107666 -1.0183716l-2.0393066 -0.60892487l-2.3780518 -0.13648224l-2.8530273 0.30445862l-3.5327148 0.9842529l-5.979004 3.5275574l-3.3306885 2.375328l-3.3623047 3.18898l-2.9238281 4.036743l-2.1732178 4.7821503l-1.0209961 3.6299286l-0.33862305 3.7322845l-0.10229492 2.1049805l0.23876953 0.30445862l0 1.9002686l0.10241699 26.427826z" fill-rule="evenodd"/><path fill="#935d8c" d="m1097.6561 119.58268l5.3675537 0.7060318l4.3201904 1.9501343l3.6193848 2.8320236l3.0340576 4.160103l2.2178955 3.8057709l1.0524902 3.897644l-0.11804199 0.8845062l-3.6195068 1.1496124l-2.9160156 0.88713074l-2.7401123 0.4855652l-0.89245605 -4.545929l-1.6246338 -4.708664l-1.4619141 -3.1653519l-2.5144043 -3.9763718z" fill-rule="evenodd"/><path fill="#5f4d93" d="m1063.1995 144.0l56.59839 0l0 76.7874l-56.59839 0z" fill-rule="evenodd"/><path fill="#935d8c" d="m999.44147 79.36017l-0.772522 0.4808426l-0.7010498 0.927269l-0.5966797 1.4081116l-0.66589355 2.3353806l-0.4208374 2.4042282l-0.38684082 2.0943985l19.084839 0.068855286l0.24505615 -7.555832l0.28131104 -2.4042358l-16.59375 -0.23986816l0 0.5496979z" fill-rule="evenodd"/></g></svg>