<svg version="1.1" viewBox="0.0 0.0 1440.0 288.0" fill="none" stroke="none" stroke-linecap="square" stroke-miterlimit="10" xmlns:xlink="http://www.w3.org/1999/xlink" xmlns="http://www.w3.org/2000/svg"><clipPath id="p.0"><path d="m0 0l1440.0 0l0 288.0l-1440.0 0l0 -288.0z" clip-rule="nonzero"/></clipPath><g clip-path="url(#p.0)"><path fill="#000000" fill-opacity="0.0" d="m0 0l1440.0 0l0 288.0l-1440.0 0z" fill-rule="evenodd"/><path fill="#5f4d93" d="m10.635171 201.98032l15.288714 42.595795l73.84514 -54.80577l-4.1338577 -5.771652l5.2887115 -3.45932l-6.5380554 -9.905502l15.480316 -10.863525l21.15223 27.018372l1.5406799 8.942261l2.1128693 6.6351624l3.27034 5.9606323l5.1916046 5.671921l4.9055023 3.173233l4.805771 2.020996l4.039383 1.3464508l5.097107 0.7690277l7.4042053 -0.09710693l6.826767 -1.1548615l7.1154785 -2.2099762l7.7873993 -3.653534l7.3070984 -4.519684l8.173218 -6.6351776l6.443573 -6.923889l4.805771 -6.729645l4.713913 -8.173233l2.2099762 -6.0577393l2.1154938 -7.7874146l0.4803009 -5.3858185l-0.09448242 -6.0577393l-0.7690277 -5.383209l-0.96325684 -3.4619446l-2.0183716 -3.9422455l-3.173233 -4.9055176l-3.653534 -3.6535492l-2.59581 -2.0183716l-3.847763 -1.9238739l-5.671921 -2.4042053l-5.1915894 -1.4409485l-11.540695 -2.212593l-2.4986877 -4.1338577l-5.7690277 -10.671921l9.6141815 -6.4435654l7.692917 5.7690277l2.7873993 0.7690277l4.519684 -3.5564346l6.2519684 4.5196915l66.921265 -47.309715l-42.3071 -20.094486l-59.902878 41.152233l5.0 3.36483l-4.519684 3.0787354l4.13385 5.1916046l5.0 3.7506561l-8.461945 5.8661423l-7.0183716 -5.77166l2.2126007 -1.7296524l1.2493439 -2.0183792l0.28871155 -2.3097076l-0.5774231 -1.921257l-1.443573 -2.2126007l-3.173233 -2.2099762l-3.9422455 -2.020996l-5.7690277 -2.0183716l-7.7874146 -1.5380554l-8.364822 -0.96325684l-7.4042053 0l-6.5380554 0.5774307l-5.963249 1.2493439l-4.8057785 1.63517l-2.5013123 1.63517l-3.8451462 0.48031616l-5.097107 3.27034l-18.94226 34.519684l-0.09711456 5.480316l18.27034 27.115479l-13.556427 9.32547l-7.115486 -9.902893l-5.0 2.8845215l-3.078743 -4.902893z" fill-rule="evenodd"/><path fill="#935d8c" d="m73.2731 160.7874l-57.52507 41.56543l12.945105 35.23088l63.854897 -47.168335z" fill-rule="evenodd"/><path fill="#935d8c" d="m183.60367 82.65098l50.718567 -35.08405l35.679626 16.372082l-57.50026 40.054527z" fill-rule="evenodd"/></g></svg>